<svg width="19" height="19" viewBox="0 0 19 19" fill="none" xmlns="http://www.w3.org/2000/svg">
<path d="M9.5 0.65H15C16.8502 0.65 18.35 2.14985 18.35 4V9.5C18.35 14.3877 14.3877 18.35 9.5 18.35C4.61228 18.35 0.65 14.3877 0.65 9.5C0.65 4.61228 4.61228 0.65 9.5 0.65Z" stroke="#16216C" stroke-width="1.3"/>
<path d="M8.06665 5.71665H12.2C13.4979 5.71665 14.55 6.76878 14.55 8.06665V9.66665C14.55 10.9645 13.4979 12.0167 12.2 12.0167H7.06665C6.32107 12.0167 5.71665 11.4122 5.71665 10.6667V8.06665C5.71665 6.76878 6.76878 5.71665 8.06665 5.71665Z" stroke="#16216C" stroke-width="1.3"/>
<line x1="7.61655" y1="7.58328" x2="12.6499" y2="7.58328" stroke="#16216C" stroke-width="1.3" stroke-linecap="round"/>
<line x1="7.61655" y1="10.1167" x2="10.1166" y2="10.1167" stroke="#16216C" stroke-width="1.3" stroke-linecap="round"/>
</svg>
